<svg width="67" height="50" viewBox="0 0 67 50" fill="none" xmlns="http://www.w3.org/2000/svg">
<circle cx="33" cy="25" r="25" fill="#68B738"/>
<path d="M60.6118 13.8702C61.1801 12.9543 61.9355 12.1724 62.8271 11.5768C63.3194 11.2278 63.6148 11.2278 63.9102 11.8759C64.3041 12.8232 64.6487 13.8203 64.3533 14.8673C64.2995 15.0449 64.2894 15.2331 64.3237 15.4155C64.358 15.598 64.4358 15.7692 64.5502 15.9143C64.8456 16.3132 65.0917 16.712 65.3379 17.061C65.6729 17.4916 65.8902 18.0039 65.968 18.5465C66.0458 19.0891 65.9813 19.6428 65.781 20.1521C65.6002 20.6466 65.566 21.1838 65.6825 21.6977C65.7809 22.1913 65.7809 22.6998 65.6825 23.1934C65.6427 23.563 65.495 23.9122 65.2582 24.1964C65.0215 24.4806 64.7064 24.6869 64.3533 24.7888C63.7236 24.9101 63.1615 25.2659 62.7779 25.7859C62.7314 25.8625 62.6662 25.9257 62.5886 25.9693C62.511 26.013 62.4236 26.0357 62.3348 26.0352C61.7441 26.1349 60.2671 24.7888 60.2671 24.1905V23.8914C60.3164 22.0965 60.2179 21.947 58.5933 21.1991C58.2533 21.0777 57.9486 20.872 57.7072 20.6008C57.4118 20.202 57.0179 20.2518 56.5749 20.4014C56.1318 20.551 55.8856 20.8501 55.9349 21.3487C56.0833 22.5556 56.1327 23.773 56.0826 24.9882C56.0858 25.1269 56.1194 25.2631 56.181 25.3871C57.7072 27.6306 58.2979 30.273 59.0364 32.8157C59.6272 34.7601 60.7102 35.8071 62.6794 35.9567C62.9946 35.9821 63.3073 36.0321 63.6148 36.1063C64.0194 36.1721 64.3952 36.3593 64.6936 36.6437C64.992 36.9281 65.1993 37.2967 65.2887 37.7017C65.6333 38.7487 65.4364 38.9979 64.4025 38.9979H61.2025C60.7882 39.0192 60.3821 38.8761 60.0702 38.5991C59.572 38.1732 59.006 37.8361 58.3964 37.602C57.7225 37.35 57.1392 36.8983 56.7225 36.3057C56.1459 35.4898 55.4858 34.7378 54.7533 34.0621C53.3749 32.6163 51.898 31.2203 50.618 29.7246C49.6435 28.7054 49.0815 27.3536 49.0426 25.9355C49.0426 25.4868 48.9441 25.2874 48.4518 25.4868C48.3044 25.5815 48.1341 25.6332 47.9595 25.6363C46.5811 25.6363 45.8918 26.4839 45.3995 27.7303C44.9564 28.7773 44.3657 29.7745 43.8241 30.8214C43.5171 31.4768 43.3494 32.1902 43.3318 32.9154C43.3318 34.112 43.6272 34.5108 44.7103 34.9097C45.3995 35.159 46.0395 35.4083 46.3841 36.1063C46.778 36.904 46.6795 37.1034 45.8426 37.1532H42.4949C42.3019 37.1726 42.1078 37.1301 41.94 37.0317C41.7721 36.9333 41.6391 36.784 41.5595 36.6048L40.6734 35.1091C40.4122 34.7189 40.2449 34.272 40.1851 33.8045C40.1253 33.3369 40.1745 32.8617 40.3288 32.4169C40.5418 31.5511 40.5587 30.6477 40.378 29.7745C40.2539 29.1663 40.2646 28.5378 40.4093 27.9343C40.5541 27.3308 40.8292 26.7673 41.2149 26.2845C41.5103 25.9355 41.5103 25.7859 41.018 25.6862C39.0049 25.2531 37.0533 24.5664 35.2088 23.6421C35.1957 23.6421 35.1832 23.6368 35.174 23.6275C35.1648 23.6181 35.1596 23.6054 35.1596 23.5922C33.5842 22.9939 33.2888 23.0937 32.8457 24.7389C32.4519 26.1349 32.0581 27.5309 31.7627 28.9767C31.4181 30.5722 31.8119 32.0679 32.3042 33.5636C32.5011 34.1618 33.0919 34.112 33.535 34.2616C34.5196 34.5607 35.3565 34.9595 35.7503 36.0065C36.095 36.8042 36.0457 36.904 35.2088 36.904C34.3719 36.904 33.535 36.8541 32.6488 36.904C31.901 36.9177 31.1712 36.6713 30.5811 36.206C28.2181 34.6105 27.5288 32.1676 27.3319 29.5252C27.2335 27.8799 26.3473 26.5836 25.3135 25.3372C25.1165 25.0879 24.9196 24.9882 24.6242 25.1876C23.5675 25.7777 22.4642 26.278 21.3258 26.6833C18.9501 27.5329 16.8653 29.0557 15.3197 31.0707C14.7425 31.8061 14.3687 32.6836 14.2366 33.6134C14.0889 34.5108 14.3351 34.9097 15.2212 35.159C16.1074 35.4083 16.5504 35.9068 16.6489 36.8541C16.6981 37.253 16.5504 37.4524 16.1566 37.4524H12.1689C12.0384 37.443 11.9121 37.4019 11.8006 37.3324C11.6892 37.263 11.596 37.1673 11.5289 37.0535C10.9105 36.2781 10.5796 35.308 10.5935 34.3114C10.5677 32.5888 10.7162 30.8681 11.0366 29.1762C11.1023 28.6695 11.2891 28.1867 11.5808 27.7696C11.8725 27.3526 12.2603 27.0139 12.7105 26.7831C15.6151 25.3871 17.1412 22.7447 18.5197 20.0025C18.815 19.4541 18.5689 19.3544 18.0766 19.4043C16.6988 19.598 15.3934 20.1474 14.2858 20.9997C12.8356 22.071 11.4695 23.2545 10.1997 24.5395C8.84568 25.9323 7.05027 26.7973 5.12895 26.9825C1.53512 27.1819 -0.138717 25.1378 0.0089747 21.8472C0.0419899 20.7253 0.459753 19.6499 1.19051 18.806C1.44455 18.4724 1.79099 18.2232 2.18559 18.0899C2.58019 17.9567 3.00504 17.9457 3.40588 18.0581C4.14434 18.2576 4.34126 18.6564 4.04588 19.4043C3.89819 19.7034 3.70126 19.9527 3.55357 20.2518C3.34119 20.5574 3.17525 20.8935 3.06127 21.249C2.51973 22.7447 3.25819 23.7917 4.78434 23.9412C6.40894 24.0908 7.73817 23.3928 8.96893 22.3957C10.4517 21.1932 11.7754 19.8024 12.9074 18.2576C13.7538 17.1295 14.8195 16.1892 16.0388 15.4946C17.2582 14.8 18.6051 14.3659 19.9966 14.2192C21.1289 14.0696 22.1135 13.571 23.1966 13.2719C25.2221 12.6465 27.3314 12.3437 29.4488 12.3745C30.4296 12.4158 31.4065 12.2282 32.3042 11.8261C34.7165 10.8289 37.2273 10.8289 39.738 11.3275C41.7072 11.7263 43.6765 12.2249 45.5964 12.7235C46.7391 12.9391 47.914 12.9051 49.0426 12.6238C51.2032 12.0691 53.4132 11.7351 55.6395 11.6266C57.0979 11.5548 58.5515 11.8458 59.8733 12.4742C60.8579 12.9229 60.8579 12.9229 60.6118 13.8702Z" fill="black"/>
</svg>
