<svg width="67" height="50" viewBox="0 0 67 50" fill="none" xmlns="http://www.w3.org/2000/svg">
<circle cx="33" cy="25" r="25" fill="#68B738"/>
<path d="M61.6118 13.8702C62.1801 12.9543 62.9355 12.1724 63.8271 11.5768C64.3194 11.2278 64.6148 11.2278 64.9102 11.8759C65.3041 12.8232 65.6487 13.8203 65.3533 14.8673C65.2995 15.0449 65.2894 15.2331 65.3237 15.4155C65.358 15.598 65.4358 15.7692 65.5502 15.9143C65.8456 16.3132 66.0917 16.712 66.3379 17.061C66.6729 17.4916 66.8902 18.0039 66.968 18.5465C67.0458 19.0891 66.9813 19.6428 66.781 20.1521C66.6002 20.6466 66.566 21.1838 66.6825 21.6977C66.7809 22.1913 66.7809 22.6998 66.6825 23.1934C66.6427 23.563 66.495 23.9122 66.2582 24.1964C66.0215 24.4806 65.7064 24.6869 65.3533 24.7888C64.7236 24.9101 64.1615 25.2659 63.7779 25.7859C63.7314 25.8625 63.6662 25.9257 63.5886 25.9693C63.511 26.013 63.4236 26.0357 63.3348 26.0352C62.7441 26.1349 61.2671 24.7888 61.2671 24.1905V23.8914C61.3164 22.0965 61.2179 21.947 59.5933 21.1991C59.2533 21.0777 58.9486 20.872 58.7072 20.6008C58.4118 20.202 58.0179 20.2518 57.5749 20.4014C57.1318 20.551 56.8856 20.8501 56.9349 21.3487C57.0833 22.5556 57.1327 23.773 57.0826 24.9882C57.0858 25.1269 57.1194 25.2631 57.181 25.3871C58.7072 27.6306 59.2979 30.273 60.0364 32.8157C60.6272 34.7601 61.7102 35.8071 63.6794 35.9567C63.9946 35.9821 64.3073 36.0321 64.6148 36.1062C65.0194 36.1721 65.3952 36.3593 65.6936 36.6437C65.992 36.9281 66.1993 37.2967 66.2887 37.7017C66.6333 38.7487 66.4364 38.9979 65.4025 38.9979H62.2025C61.7882 39.0192 61.3821 38.8761 61.0702 38.5991C60.572 38.1732 60.006 37.8361 59.3964 37.6019C58.7225 37.35 58.1392 36.8983 57.7225 36.3057C57.1459 35.4898 56.4858 34.7378 55.7533 34.0621C54.3749 32.6163 52.898 31.2203 51.618 29.7246C50.6435 28.7054 50.0815 27.3536 50.0426 25.9355C50.0426 25.4868 49.9441 25.2874 49.4518 25.4868C49.3044 25.5815 49.1341 25.6332 48.9595 25.6363C47.5811 25.6363 46.8918 26.4839 46.3995 27.7303C45.9564 28.7773 45.3657 29.7745 44.8241 30.8214C44.5171 31.4768 44.3494 32.1902 44.3318 32.9154C44.3318 34.112 44.6272 34.5108 45.7103 34.9097C46.3995 35.159 47.0395 35.4083 47.3841 36.1062C47.778 36.904 47.6795 37.1034 46.8426 37.1532H43.4949C43.3019 37.1726 43.1078 37.1301 42.94 37.0317C42.7721 36.9333 42.6391 36.784 42.5595 36.6048L41.6734 35.1091C41.4122 34.7189 41.2449 34.272 41.1851 33.8045C41.1253 33.3369 41.1745 32.8617 41.3288 32.4169C41.5418 31.5511 41.5587 30.6477 41.378 29.7745C41.2539 29.1663 41.2646 28.5378 41.4093 27.9343C41.5541 27.3308 41.8292 26.7673 42.2149 26.2845C42.5103 25.9355 42.5103 25.7859 42.018 25.6862C40.0049 25.2531 38.0533 24.5664 36.2088 23.6421C36.1957 23.6421 36.1832 23.6368 36.174 23.6275C36.1648 23.6181 36.1596 23.6054 36.1596 23.5922C34.5842 22.9939 34.2888 23.0937 33.8457 24.7389C33.4519 26.1349 33.0581 27.5309 32.7627 28.9767C32.4181 30.5722 32.8119 32.0679 33.3042 33.5636C33.5011 34.1618 34.0919 34.112 34.535 34.2616C35.5196 34.5607 36.3565 34.9595 36.7503 36.0065C37.095 36.8042 37.0457 36.904 36.2088 36.904C35.3719 36.904 34.535 36.8541 33.6488 36.904C32.901 36.9177 32.1712 36.6713 31.5811 36.206C29.2181 34.6105 28.5288 32.1676 28.3319 29.5252C28.2335 27.8799 27.3473 26.5836 26.3135 25.3372C26.1165 25.0879 25.9196 24.9882 25.6242 25.1876C24.5675 25.7777 23.4642 26.278 22.3258 26.6833C19.9501 27.5329 17.8653 29.0557 16.3197 31.0707C15.7425 31.8061 15.3687 32.6836 15.2366 33.6134C15.0889 34.5108 15.3351 34.9097 16.2212 35.159C17.1074 35.4083 17.5504 35.9068 17.6489 36.8541C17.6981 37.253 17.5504 37.4524 17.1566 37.4524H13.1689C13.0384 37.443 12.9121 37.4019 12.8006 37.3324C12.6892 37.263 12.596 37.1673 12.5289 37.0535C11.9105 36.2781 11.5796 35.308 11.5935 34.3114C11.5677 32.5888 11.7162 30.8681 12.0366 29.1762C12.1023 28.6695 12.2891 28.1867 12.5808 27.7696C12.8725 27.3526 13.2603 27.0139 13.7105 26.7831C16.6151 25.3871 18.1412 22.7447 19.5197 20.0025C19.815 19.4541 19.5689 19.3544 19.0766 19.4043C17.6988 19.598 16.3934 20.1474 15.2858 20.9997C13.8356 22.071 12.4695 23.2545 11.1997 24.5395C9.84568 25.9323 8.05027 26.7973 6.12895 26.9825C2.53512 27.1819 0.861283 25.1378 1.00897 21.8472C1.04199 20.7253 1.45975 19.6499 2.19051 18.806C2.44455 18.4724 2.79099 18.2232 3.18559 18.0899C3.58019 17.9567 4.00504 17.9457 4.40588 18.0581C5.14434 18.2576 5.34126 18.6564 5.04588 19.4043C4.89819 19.7034 4.70126 19.9527 4.55357 20.2518C4.34119 20.5574 4.17525 20.8935 4.06127 21.249C3.51973 22.7447 4.25819 23.7917 5.78434 23.9412C7.40894 24.0908 8.73817 23.3928 9.96893 22.3957C11.4517 21.1932 12.7754 19.8024 13.9074 18.2576C14.7538 17.1295 15.8195 16.1892 17.0388 15.4946C18.2582 14.8 19.6051 14.3659 20.9966 14.2192C22.1289 14.0696 23.1135 13.571 24.1966 13.2719C26.2221 12.6465 28.3314 12.3437 30.4488 12.3745C31.4296 12.4158 32.4065 12.2282 33.3042 11.8261C35.7165 10.8289 38.2273 10.8289 40.738 11.3275C42.7072 11.7263 44.6765 12.2249 46.5964 12.7235C47.7391 12.9391 48.914 12.9051 50.0426 12.6238C52.2032 12.0691 54.4132 11.7351 56.6395 11.6266C58.0979 11.5548 59.5515 11.8458 60.8733 12.4742C61.8579 12.9229 61.8579 12.9229 61.6118 13.8702Z" fill="black"/>
</svg>
